<svg width="1397" height="360" viewBox="0 0 1397 360" fill="none" xmlns="http://www.w3.org/2000/svg">
<path d="M431.473 224.525V131.931H447.486V210.103H485.872V224.525H431.473Z" fill="black"/>
<path d="M504.888 150.839C502.146 150.839 499.793 149.942 497.812 148.131C495.832 146.32 494.833 143.916 494.833 140.92C494.833 137.923 495.832 135.52 497.812 133.708C499.793 131.897 502.146 131 504.888 131C507.8 131 510.203 131.914 512.099 133.708C513.995 135.52 514.943 137.923 514.943 140.92C514.943 143.916 513.995 146.32 512.099 148.131C510.203 149.942 507.8 150.839 504.888 150.839ZM497.355 224.525V159.168H512.573V224.508H497.355V224.525Z" fill="black"/>
<path d="M524.337 192.109V190.128C524.337 183.256 525.709 177.365 528.434 172.473C531.176 167.581 534.833 163.823 539.42 161.233C544.007 158.626 549.035 157.339 554.502 157.339C560.681 157.339 565.37 158.44 568.586 160.64C571.802 162.841 574.155 165.228 575.662 167.784H577.913V159.184H592.725V236.967C592.725 241.283 591.489 244.703 589.018 247.225C586.546 249.73 583.195 251 578.963 251H535.053V237.779H573.8C576.356 237.779 577.643 236.459 577.643 233.818V214.91H575.391C574.426 216.417 573.106 217.94 571.43 219.481C569.754 221.021 567.554 222.325 564.811 223.391C562.069 224.44 558.633 224.982 554.502 224.982C549.035 224.982 544.007 223.679 539.42 221.072C534.833 218.465 531.176 214.724 528.434 209.832C525.692 204.94 524.337 199.049 524.337 192.176V192.109ZM558.734 211.559C564.202 211.559 568.739 209.815 572.361 206.328C575.984 202.841 577.778 197.983 577.778 191.719V190.399C577.778 184.051 575.984 179.159 572.412 175.723C568.84 172.286 564.27 170.56 558.717 170.56C553.165 170.56 548.679 172.286 545.023 175.723C541.367 179.159 539.538 184.051 539.538 190.399V191.719C539.538 197.983 541.367 202.858 545.023 206.328C548.679 209.815 553.25 211.559 558.717 211.559H558.734Z" fill="black"/>
<path d="M607.876 224.525V131.931H623.094V167.784H625.345C626.056 166.294 627.19 164.787 628.781 163.281C630.372 161.774 632.455 160.556 635.061 159.574C637.668 158.609 640.952 158.118 644.913 158.118C649.941 158.118 654.393 159.235 658.269 161.487C662.146 163.738 665.176 166.886 667.326 170.949C669.492 175.012 670.559 179.819 670.559 185.371V224.525H655.341V186.556C655.341 181.258 654.037 177.314 651.447 174.724C648.841 172.117 645.167 170.831 640.394 170.831C635.011 170.831 630.779 172.608 627.698 176.18C624.617 179.751 623.06 184.847 623.06 191.465V224.542H607.842L607.876 224.525Z" fill="black"/>
<path d="M709.407 224.525C705.176 224.525 701.807 223.273 699.285 220.75C696.779 218.245 695.51 214.826 695.51 210.492V171.728H678.447V159.168H695.51V138.144H710.728V159.168H729.517V171.728H710.728V207.97C710.728 210.611 711.964 211.931 714.435 211.931H727.537V224.491H709.407V224.525Z" fill="black"/>
<path d="M750.812 224.525L740.622 159.185H755.705L762.713 214.335H764.964L774.884 159.185H799.226L809.145 214.335H811.397L818.405 159.185H833.487L823.297 224.525H798.024L788.239 169.358H785.988L776.069 224.525H750.812Z" fill="black"/>
<path d="M844.456 224.525V131.931H859.674V167.784H861.925C862.636 166.294 863.77 164.787 865.362 163.281C866.953 161.774 869.052 160.556 871.642 159.574C874.249 158.609 877.532 158.118 881.494 158.118C886.521 158.118 890.973 159.235 894.849 161.487C898.726 163.738 901.756 166.886 903.906 170.949C906.072 175.012 907.139 179.819 907.139 185.371V224.525H891.921V186.556C891.921 181.258 890.618 177.314 888.028 174.724C885.421 172.117 881.747 170.831 876.974 170.831C871.591 170.831 867.359 172.608 864.278 176.18C861.197 179.751 859.657 184.847 859.657 191.465V224.542H844.439L844.456 224.525Z" fill="black"/>
<path d="M951.794 226.37C945.26 226.37 939.522 224.982 934.528 222.206C929.551 219.43 925.675 215.503 922.882 210.441C920.106 205.363 918.718 199.438 918.718 192.65V191.059C918.718 184.187 920.089 178.228 922.814 173.201C925.54 168.173 929.382 164.28 934.325 161.487C939.268 158.711 944.956 157.323 951.388 157.323C957.821 157.323 963.288 158.711 968.062 161.487C972.818 164.263 976.526 168.173 979.166 173.201C981.807 178.228 983.127 184.085 983.127 190.788V196.205H934.054C934.223 201.317 936.035 205.414 939.488 208.512C942.924 211.593 947.156 213.133 952.184 213.133C957.211 213.133 960.783 212.05 963.17 209.9C965.557 207.733 967.351 205.295 968.587 202.553L981.147 209.036C979.911 211.423 978.117 213.945 975.798 216.637C973.462 219.328 970.347 221.614 966.471 223.51C962.594 225.405 957.702 226.353 951.794 226.353V226.37ZM934.207 184.694H967.673C967.317 180.378 965.658 176.942 962.713 174.386C959.75 171.829 955.942 170.543 951.27 170.543C946.598 170.543 942.535 171.829 939.623 174.386C936.712 176.942 934.901 180.378 934.19 184.694H934.207Z" fill="black"/>
<path d="M1024.97 226.37C1018.44 226.37 1012.68 224.982 1007.71 222.206C1002.73 219.43 998.836 215.503 996.06 210.441C993.284 205.363 991.896 199.438 991.896 192.65V191.059C991.896 184.187 993.267 178.228 995.992 173.201C998.718 168.173 1002.56 164.28 1007.5 161.487C1012.45 158.711 1018.13 157.323 1024.57 157.323C1031 157.323 1036.47 158.711 1041.24 161.487C1046 164.263 1049.7 168.173 1052.34 173.201C1054.99 178.228 1056.31 184.085 1056.31 190.788V196.205H1007.23C1007.4 201.317 1009.21 205.414 1012.65 208.512C1016.09 211.593 1020.32 213.133 1025.34 213.133C1030.37 213.133 1033.94 212.05 1036.33 209.9C1038.72 207.733 1040.51 205.295 1041.75 202.553L1054.31 209.036C1053.07 211.423 1051.28 213.945 1048.94 216.637C1046.61 219.328 1043.49 221.614 1039.62 223.51C1035.74 225.405 1030.85 226.353 1024.94 226.353L1024.97 226.37ZM1007.38 184.694H1040.85C1040.5 180.378 1038.84 176.942 1035.89 174.386C1032.93 171.829 1029.12 170.543 1024.45 170.543C1019.78 170.543 1015.71 171.829 1012.8 174.386C1009.89 176.942 1008.08 180.378 1007.38 184.694Z" fill="black"/>
<path d="M1068.02 224.525V131.931H1083.24V224.525H1068.02Z" fill="black"/>
<path d="M1213.92 224.525V131.931H1229.93V224.525H1213.92Z" fill="black"/>
<path d="M1179.67 131.931H1152.01L1126.62 224.525H1143.03L1145.24 216.078L1152.34 188.808H1152.28L1154.76 179.481L1164.73 141.851H1166.96L1179.4 188.808H1179.35L1186.12 214.826L1188.66 224.525H1205.07L1179.67 131.931Z" fill="black"/>
<path d="M1184.18 203.366H1146.53V188.808H1179.4L1184.18 203.366Z" fill="black"/>
<rect x="151.473" y="80" width="200" height="200" rx="100" fill="black"/>
<path d="M251.466 80.0034C269.687 80.0034 286.76 84.8914 301.463 93.4083L251.466 179.985H151.473C151.473 124.773 196.248 80.0034 251.466 80.0034Z" fill="url(#paint0_linear_161_1592)"/>
<path d="M338.053 230.013C328.943 245.788 316.166 258.119 301.463 266.599L251.466 180.022L301.463 93.4455C349.275 121.07 365.681 182.207 338.053 230.013Z" fill="url(#paint1_linear_161_1592)"/>
<path d="M164.879 230.013C155.769 214.238 151.473 196.982 151.473 179.985H251.466L301.463 266.599C253.651 294.186 192.47 277.819 164.879 230.013Z" fill="url(#paint2_linear_161_1592)"/>
<path d="M278.39 259.97L262.021 231.642C249.54 210.016 226.431 196.686 201.432 196.686H168.138C158.917 196.649 151.473 189.205 151.473 179.985C151.473 170.764 158.917 163.321 168.138 163.321H201.469C226.468 163.321 249.54 149.991 262.058 128.365L278.39 100.037C282.39 93.1122 290.723 89.4092 298.315 91.9642C308.648 95.4451 312.721 107.221 307.574 116.145L290.908 144.991C278.427 166.617 278.427 193.279 290.908 214.941L307.574 243.788C312.759 252.749 308.648 264.488 298.315 267.969C290.723 270.524 282.427 266.821 278.427 259.896L278.39 259.97Z" fill="url(#paint3_radial_161_1592)"/>
<defs>
<linearGradient id="paint0_linear_161_1592" x1="151.473" y1="180.003" x2="301.468" y2="96.0117" gradientUnits="userSpaceOnUse">
<stop offset="0.234375" stop-color="#382BFA" stop-opacity="0"/>
<stop offset="0.711501" stop-color="#7DB0FC"/>
<stop offset="0.880208" stop-color="#D4E5FE"/>
</linearGradient>
<linearGradient id="paint1_linear_161_1592" x1="301.473" y1="93" x2="301.473" y2="267" gradientUnits="userSpaceOnUse">
<stop offset="0.234375" stop-color="#382BFA" stop-opacity="0"/>
<stop offset="0.711501" stop-color="#BD91EB"/>
<stop offset="0.880208" stop-color="#D4E5FE"/>
</linearGradient>
<linearGradient id="paint2_linear_161_1592" x1="301.473" y1="266.5" x2="151.502" y2="179.949" gradientUnits="userSpaceOnUse">
<stop offset="0.234375" stop-color="#382BFA" stop-opacity="0"/>
<stop offset="0.711501" stop-color="#A59AFA"/>
<stop offset="0.880208" stop-color="#D4E5FE"/>
</linearGradient>
<radialGradient id="paint3_radial_161_1592" cx="0" cy="0" r="1" gradientUnits="userSpaceOnUse" gradientTransform="translate(250.973 180) rotate(-105.709) scale(99.7246 99.4762)">
<stop stop-color="white"/>
<stop offset="1" stop-color="#D4E5FE"/>
</radialGradient>
</defs>
</svg>
